<svg enable-background="new 0 0 1024 1024" viewBox="0 0 1024 1024" xmlns="http://www.w3.org/2000/svg"><circle cx="512" cy="512" fill="#ffc708" r="512"/><path clip-rule="evenodd" d="m739.1 548.2-44-36.2 43.9-36.2-25.2-30.5-80.8 66.7 80.9 66.8zm-31.3 74.3-109-87h-135v199.8h39.5v-160.3h81.7l98.2 78.4zm-50.1 59.4-84.2-69.3-32.3.2v122.4l39.5-10.1v-55.4l44.2 36.4zm-232.5-327.4-39.5-34.4v387.3l39.5-34.4zm-77.5 50.8-39.5 36.3v150.4l39.5 33.7zm116.1 83.2h135l109-87-24.7-30.9-98.1 78.4h-81.6v-160.3h-39.5v199.8zm77.3-71.9 32.3.2 84.2-69.3-32.8-24.2-44.2 36.4v-55.4l-39.5-10.1zm226.9 95.4c0 141.4-114.6 256-256 256s-256-114.6-256-256 114.6-256 256-256 256 114.6 256 256z" fill="#fff" fill-rule="evenodd"/></svg>